<svg style="width:124px" version="1" xmlns="http://www.w3.org/2000/svg" viewBox="0 0 512 512">
      <path fill="#3ebd91" d="M387 10H125v177l50 73h166l46-73z" />
      <path fill="#ecf0f1" d="M178 10h157v250H178z" />
      <path fill="#3ebd91" d="M219 11h73v250h-73z" />
      <ellipse cx="256" cy="363" rx="138" ry="138" fill="#f8c660" />
      <path d="M187 339l64-64a21 21 0 0 1 35 15v166h-41V340l-29 29-29-30z" fill="#ecf0f1" />
      <g fill="#231f20">
        <path d="M357 254l38-62 2-5V10c0-5-5-10-10-10H125c-5 0-10 5-10 10v177l2 5 40 60a148 148 0 0 0 99 260 149 149 0 0 0 101-258zm19-70l-31 50V21h31v163zm-52 47l-21-9V21h21v210zM282 21v196a149 149 0 0 0-52 0V21h52zm-73 0v201l-21 9V21h21zm-73 0h31v208l-31-46V21zm120 470a128 128 0 1 1 0-256 128 128 0 0 1 0 256z"
        />
        <path d="M277 261c-11-5-25-2-34 7l-64 64c-4 4-4 10 1 14l29 30c2 2 5 3 7 3 3 0 6-1 8-3l10-10v89c0 6 5 11 11 11h41c6 0 11-5 11-11V290c0-13-8-24-20-29zm-1 184h-21V340a10 10 0 0 0-18-7l-21 21-14-15 56-56a10 10 0 0 1 18 7v155z"
        />
      </g>
    </svg>
